# Blender v2.79 (sub 0) OBJ File: 'platformtex.blend'
# www.blender.org
mtllib platformtex1.mtl
o Plane.001
v -83.433220 -0.000959 71.672676
v 83.016579 -0.000960 71.672676
v -83.433220 -0.000959 -71.871025
v 83.016579 -0.000960 -71.871025
v -83.433220 -0.000959 -71.871025
v -83.433220 -0.000959 71.672676
v 83.016579 -0.000960 71.672676
v 83.016579 -0.000960 -71.871025
v -83.433220 -0.000959 -71.871025
v -83.433220 -0.000959 71.672676
v 83.016579 -0.000960 71.672676
v 83.016579 -0.000960 -71.871025
v -83.433220 -0.000959 -71.871025
v -83.433220 -0.000959 71.672676
v 83.016579 -0.000960 71.672676
v 83.016579 -0.000960 -71.871025
v -83.433220 -0.000959 -71.871025
v -83.433220 -0.000959 71.672676
v 83.016579 -0.000960 71.672676
v 83.016579 -0.000960 -71.871025
v 93.742371 10.098315 80.922424
v -94.159012 10.098331 80.922424
v 93.742371 10.098315 -81.120773
v -94.159012 10.098331 -81.120773
v 93.742371 10.098315 -81.120773
v 93.742371 10.098315 80.922424
v -94.159012 10.098331 80.922424
v -94.159012 10.098331 -81.120773
v 93.742371 10.098315 -81.120773
v 93.742371 10.098315 80.922424
v -94.159012 10.098331 80.922424
v -94.159012 10.098331 -81.120773
v 93.742371 10.098315 -81.120773
v 93.742371 10.098315 80.922424
v -94.159012 10.098331 80.922424
v -94.159012 10.098331 -81.120773
v 93.742371 10.098315 -81.120773
v 93.742371 10.098315 80.922424
v -94.159012 10.098331 80.922424
v -94.159012 10.098331 -81.120773
v 103.166275 -12.945220 -89.247803
v 103.166275 -12.945220 89.049454
v -103.582916 -12.945201 89.049454
v -103.582916 -12.945201 -89.247803
v 93.742371 10.098315 -81.120773
v 93.742371 10.098315 80.922424
v -94.159012 10.098331 80.922424
v -94.159012 10.098331 -81.120773
v 86.535454 10.098316 74.707291
v 86.535454 10.098316 -74.905640
v -86.952095 10.098331 -74.905647
v -86.952095 10.098330 74.707298
v 103.166275 -12.945220 -89.247803
v 103.166275 -12.945220 89.049454
v -103.582916 -12.945201 89.049454
v -103.582916 -12.945201 -89.247803
v 103.166275 -12.945220 -89.247803
v 103.166275 -12.945220 89.049454
v -103.582916 -12.945201 89.049454
v -103.582916 -12.945201 -89.247803
v 184.873154 -13.826619 -159.710541
v 184.873154 -13.826619 159.512177
v -185.289810 -13.826589 159.512177
v -185.289810 -13.826589 -159.710541
vt 0.347885 0.640784
vt 0.669895 0.346021
vt 0.663880 0.644778
vt 0.675495 0.343289
vt 0.669131 0.648535
vt 0.667866 0.651707
vt 0.347825 0.347393
vt 0.365899 0.635759
vt 0.355748 0.350120
vt 0.350889 0.344958
vt 0.673185 0.338011
vt 0.665201 0.342141
vt 0.331029 0.643885
vt 0.325766 0.637193
vt 0.320917 0.330698
vt 0.345855 0.339618
vt 0.654145 0.639431
vt 0.268542 0.734490
vt 0.337734 0.348896
vt 0.339307 0.646125
vt 0.686016 0.673506
vt 0.682545 0.329860
vt 0.314860 0.668172
vt 0.667877 0.349261
vt 0.724979 0.713558
vt 0.664014 0.647931
vt 0.268418 0.278266
vt 0.667022 0.348759
vt 0.339674 0.348196
vt 0.725794 0.724141
vt 0.341054 0.647873
vt 0.664014 0.649695
vt 0.296844 0.290762
vt 0.685906 0.292189
vt 0.305245 0.298215
vt 0.289911 0.283491
vt 0.295646 0.716727
vt 0.282723 0.275972
vt 0.692490 0.282809
vt 0.698952 0.275148
vt 0.307510 0.696239
vt 0.710736 0.700457
vt 0.301048 0.703901
vt 0.702509 0.691786
vt 0.728465 0.271190
vt 0.275273 0.268196
vt 0.712584 0.259022
vt 0.723098 0.716497
vt 0.732602 0.727795
vt 0.719239 0.250744
vt 0.746423 0.749976
vt 0.288063 0.731226
vt 0.748575 0.243688
vt 0.813740 0.813671
vt 0.749682 0.737630
vt 0.257537 0.751349
vt 0.267735 0.260759
vt 0.795813 0.787214
vt 0.815919 0.188245
vt 0.809786 0.798440
vt 0.189473 0.190306
vt 0.249808 0.258996
vt 0.276699 0.268696
vt 0.816118 0.191131
vt 0.731462 0.269263
vt 0.186771 0.814181
vt 0.314094 0.686859
vt 0.249937 0.260488
vt 0.254169 0.727267
vt 0.693728 0.682501
vt 0.737857 0.266946
vt 0.297032 0.298215
vt 0.689499 0.297189
vt 0.816383 0.186661
vt 0.817464 0.810166
vt 0.231847 0.220290
vt 0.185839 0.814882
vt 0.192577 0.190598
vt 0.778633 0.221997
vt 0.188643 0.811377
vt 0.000099 0.000099
vt 0.191101 0.183547
vt 0.186061 0.814435
vt 0.186581 0.187215
vt 0.811354 0.192956
vt 0.996696 0.000099
vt 0.999901 0.978949
vt 0.003304 0.978950
vt 0.808095 0.197365
vt 0.811272 0.807468
vt 0.264824 0.287155
vt 0.731094 0.276910
vt 0.721430 0.280279
vt 0.276985 0.722858
vt 0.812859 0.190249
vt 0.191102 0.190306
vt 0.817000 0.817198
vt 0.313459 0.317103
vt 0.731498 0.725905
vt 0.691283 0.693083
vt 0.735974 0.722658
vt 0.257124 0.267155
vt 0.186212 0.192366
vn 0.0000 1.0000 0.0000
vn 0.0000 0.0000 1.0000
vn -0.9443 0.3290 0.0000
vn 0.9443 0.3290 0.0000
vn 0.0000 0.2878 0.9577
vn 0.0000 0.2878 -0.9577
vn -0.9256 0.3785 0.0000
vn 0.9256 0.3785 0.0000
vn 0.0000 0.3326 -0.9431
vn 0.0000 0.3326 0.9431
vn 0.0108 0.9999 0.0000
vn 0.0000 0.9999 -0.0125
vn 0.0000 0.9999 0.0125
vn -0.0108 0.9999 0.0000
usemtl Material.002
s off
f 2/1/1 3/2/1 1/3/1
f 5/4/2 10/5/2 6/6/2
f 4/7/2 5/4/2 3/2/2
f 1/3/2 7/8/2 2/1/2
f 2/1/2 8/9/2 4/7/2
f 3/2/2 6/6/2 1/3/2
f 12/10/2 13/11/2 9/12/2
f 8/9/2 9/12/2 5/4/2
f 6/6/2 11/13/2 7/8/2
f 7/8/2 12/10/2 8/9/2
f 15/14/2 20/15/2 16/16/2
f 10/5/2 15/14/2 11/13/2
f 11/13/2 16/16/2 12/10/2
f 9/12/2 14/17/2 10/5/2
f 49/18/3 20/19/3 19/20/3
f 13/11/2 18/21/2 14/17/2
f 16/16/2 17/22/2 13/11/2
f 14/17/2 19/23/2 15/14/2
f 17/24/4 52/25/4 18/26/4
f 50/27/5 17/28/5 20/29/5
f 52/30/6 19/31/6 18/32/6
f 23/33/2 48/34/2 45/35/2
f 25/36/2 30/37/2 29/38/2
f 24/39/2 25/36/2 28/40/2
f 21/41/2 27/42/2 26/43/2
f 22/44/2 28/40/2 27/42/2
f 23/33/2 26/43/2 25/36/2
f 32/45/2 33/46/2 36/47/2
f 28/40/2 29/38/2 32/45/2
f 26/43/2 31/48/2 30/37/2
f 27/42/2 32/45/2 31/48/2
f 35/49/2 40/50/2 39/51/2
f 30/37/2 35/49/2 34/52/2
f 31/48/2 36/47/2 35/49/2
f 29/38/2 34/52/2 33/46/2
f 40/53/7 43/54/7 39/55/7
f 33/46/2 38/56/2 37/57/2
f 36/47/2 37/57/2 40/50/2
f 34/52/2 39/51/2 38/56/2
f 43/58/2 56/59/2 55/60/2
f 38/56/8 41/61/8 37/62/8
f 37/63/9 44/64/9 40/65/9
f 39/51/10 42/66/10 38/56/10
f 46/67/1 50/68/1 49/69/1
f 22/44/2 46/67/2 47/70/2
f 24/39/2 47/70/2 48/34/2
f 21/41/2 45/35/2 46/67/2
f 51/71/1 45/72/1 48/73/1
f 55/60/2 60/74/2 59/75/2
f 41/76/2 54/77/2 53/78/2
f 44/79/2 53/78/2 56/59/2
f 42/66/2 55/60/2 54/77/2
f 58/80/11 61/81/11 57/82/11
f 53/78/2 58/83/2 57/84/2
f 56/59/2 57/84/2 60/74/2
f 54/77/2 59/75/2 58/83/2
f 60/85/12 61/81/12 64/86/12
f 58/80/13 63/87/13 62/88/13
f 60/89/14 63/87/14 59/90/14
f 2/1/1 4/7/1 3/2/1
f 5/4/2 9/12/2 10/5/2
f 4/7/2 8/9/2 5/4/2
f 1/3/2 6/6/2 7/8/2
f 2/1/2 7/8/2 8/9/2
f 3/2/2 5/4/2 6/6/2
f 12/10/2 16/16/2 13/11/2
f 8/9/2 12/10/2 9/12/2
f 6/6/2 10/5/2 11/13/2
f 7/8/2 11/13/2 12/10/2
f 15/14/2 19/23/2 20/15/2
f 10/5/2 14/17/2 15/14/2
f 11/13/2 15/14/2 16/16/2
f 9/12/2 13/11/2 14/17/2
f 49/18/3 50/91/3 20/19/3
f 13/11/2 17/22/2 18/21/2
f 16/16/2 20/15/2 17/22/2
f 14/17/2 18/21/2 19/23/2
f 17/24/4 51/92/4 52/25/4
f 50/27/5 51/93/5 17/28/5
f 52/30/6 49/94/6 19/31/6
f 23/33/2 24/39/2 48/34/2
f 25/36/2 26/43/2 30/37/2
f 24/39/2 23/33/2 25/36/2
f 21/41/2 22/44/2 27/42/2
f 22/44/2 24/39/2 28/40/2
f 23/33/2 21/41/2 26/43/2
f 32/45/2 29/38/2 33/46/2
f 28/40/2 25/36/2 29/38/2
f 26/43/2 27/42/2 31/48/2
f 27/42/2 28/40/2 32/45/2
f 35/49/2 36/47/2 40/50/2
f 30/37/2 31/48/2 35/49/2
f 31/48/2 32/45/2 36/47/2
f 29/38/2 30/37/2 34/52/2
f 40/53/7 44/95/7 43/54/7
f 33/46/2 34/52/2 38/56/2
f 36/47/2 33/46/2 37/57/2
f 34/52/2 35/49/2 39/51/2
f 43/58/2 44/79/2 56/59/2
f 38/56/8 42/66/8 41/61/8
f 37/63/9 41/96/9 44/64/9
f 39/51/10 43/97/10 42/66/10
f 46/67/1 45/98/1 50/68/1
f 49/69/1 52/99/1 46/67/1
f 52/99/1 47/100/1 46/67/1
f 22/44/2 21/41/2 46/67/2
f 24/39/2 22/44/2 47/70/2
f 21/41/2 23/33/2 45/35/2
f 48/73/1 47/70/1 52/101/1
f 51/71/1 50/102/1 45/72/1
f 48/73/1 52/101/1 51/71/1
f 55/60/2 56/59/2 60/74/2
f 41/76/2 42/66/2 54/77/2
f 44/79/2 41/76/2 53/78/2
f 42/66/2 43/58/2 55/60/2
f 58/80/11 62/88/11 61/81/11
f 53/78/2 54/77/2 58/83/2
f 56/59/2 53/78/2 57/84/2
f 54/77/2 55/60/2 59/75/2
f 60/85/12 57/103/12 61/81/12
f 58/80/13 59/90/13 63/87/13
f 60/89/14 64/86/14 63/87/14
